<svg viewBox="0 0 30 30" xml:space="preserve" xmlns="http://www.w3.org/2000/svg" enable-background="new 0 0 30 30"><path d="M3.158 26.134C6.066 23.557 5 21 5 21l7 2s-3.663 3.721-8.417 3.99l-.425-.856z" fill="#dede1f" class="fill-000000"></path><circle cx="3.5" cy="26.5" r=".5" fill="#dede1f" class="fill-000000"></circle><path d="M15 3C7.82 3 2 7.925 2 14s5.82 11 13 11 13-4.925 13-11S22.18 3 15 3zm1 17h-2v-7h2v7zm-1-9.5a1.5 1.5 0 1 1 .001-3.001A1.5 1.5 0 0 1 15 10.5z" fill="#dede1f" class="fill-000000"></path></svg>