<svg width="15" height="14" viewBox="0 0 15 14" fill="none" xmlns="http://www.w3.org/2000/svg">
<path d="M12.1667 9.50004V9.83337H3.26307L4.83802 6.97464L4.96148 6.75055L4.85195 6.51933L2.45195 1.45266L2.3165 1.16671H2.00008H1.16675V0.833374H2.51737L3.01511 1.88124L3.15071 2.16671H3.46675H13.6191L10.8552 7.16671H5.40008H5.10445L4.96197 7.42575L4.22864 8.75908L3.82111 9.50004H4.66675H12.1667ZM4.66675 13.1667C4.43362 13.1667 4.24675 13.0896 4.07897 12.9218C3.91056 12.7534 3.83341 12.5663 3.83341 12.3334C3.83341 12.1005 3.91056 11.9133 4.07897 11.7449L3.72541 11.3914L4.07897 11.7449C4.24675 11.5771 4.43362 11.5 4.66675 11.5C4.89988 11.5 5.08675 11.5771 5.25453 11.7449C5.42293 11.9133 5.50008 12.1005 5.50008 12.3334C5.50008 12.5663 5.42293 12.7534 5.25453 12.9218C5.08675 13.0896 4.89988 13.1667 4.66675 13.1667ZM11.3334 13.1667C11.1003 13.1667 10.9134 13.0896 10.7456 12.9218C10.5772 12.7534 10.5001 12.5663 10.5001 12.3334C10.5001 12.1005 10.5772 11.9133 10.7456 11.7449C10.9134 11.5771 11.1003 11.5 11.3334 11.5C11.5664 11.5 11.7536 11.5771 11.9219 11.7449C12.0897 11.9132 12.1667 12.1004 12.1667 12.3334C12.1667 12.5664 12.0897 12.7536 11.9219 12.9218C11.7536 13.0897 11.5664 13.1667 11.3334 13.1667Z" stroke="#303030"/>
</svg>
