<svg viewBox="0 0 48 48" xml:space="preserve" xmlns="http://www.w3.org/2000/svg"><path d="M23.957 0c-13.255 0-24 10.745-24 24s10.745 24 24 24 24-10.745 24-24-10.745-24-24-24zm.706 36.56c-.451.486-1.091.729-1.924.729-.832 0-1.471-.237-1.916-.712s-.668-1.14-.668-1.995c0-1.77.861-2.654 2.584-2.654.844 0 1.488.231 1.934.694s.668 1.116.668 1.96c0 .832-.227 1.491-.678 1.978zm6.268-17.157c-.258.686-.648 1.339-1.17 1.96s-1.42 1.43-2.697 2.426c-1.09.855-1.82 1.564-2.189 2.127-.312.475-.483 1.096-.531 1.847-.003.016-.008.021-.011.037-.21 1.183-1.584 1.175-1.584 1.175h-.722s-1.195-.188-1.15-1.125c0-1.289.234-2.361.703-3.217s1.29-1.74 2.461-2.654c1.395-1.102 2.293-1.957 2.697-2.566s.607-1.336.607-2.18c0-.984-.328-1.74-.984-2.268s-1.6-.791-2.83-.791c-1.114 0-2.145.158-3.094.475a22.29 22.29 0 0 0-1.532.58c-.011.004-.015.002-.027.007-1.166.451-1.707-.466-1.707-.466l-.458-.959c-.002-.006-.516-1.177.63-1.692a15.42 15.42 0 0 1 6.486-1.406c2.296 0 4.119.563 5.466 1.688s2.021 2.678 2.021 4.658c.001.877-.128 1.659-.385 2.344z" fill="#dec81f" class="fill-231f20"></path></svg>