<svg width="14" height="13" viewBox="0 0 14 13" fill="none" xmlns="http://www.w3.org/2000/svg">
<path d="M6.36984 10.9836L6.36912 10.9829C4.64262 9.41736 3.24986 8.1516 2.28288 6.96857C1.3214 5.79226 0.833252 4.75896 0.833252 3.66667C0.833252 1.8834 2.22213 0.5 3.99992 0.5C5.00877 0.5 5.98531 0.972229 6.6205 1.71231L6.99992 2.15438L7.37934 1.71231C8.01452 0.972229 8.99107 0.5 9.99992 0.5C11.7777 0.5 13.1666 1.8834 13.1666 3.66667C13.1666 4.75896 12.6784 5.79226 11.717 6.96857C10.75 8.1516 9.35721 9.41736 7.63071 10.9829L7.62999 10.9836L6.99992 11.5572L6.36984 10.9836Z" stroke="#303030"/>
</svg>
