<svg width="16" height="16" viewBox="0 0 16 16" fill="none" xmlns="http://www.w3.org/2000/svg">
<path d="M12.0206 11.078L14.8759 13.9327L13.9326 14.876L11.0779 12.0207C10.0157 12.8722 8.69459 13.3353 7.33325 13.3334C4.02125 13.3334 1.33325 10.6454 1.33325 7.33337C1.33325 4.02137 4.02125 1.33337 7.33325 1.33337C10.6453 1.33337 13.3333 4.02137 13.3333 7.33337C13.3352 8.69471 12.8721 10.0159 12.0206 11.078ZM10.6833 10.5834C11.5293 9.7133 12.0018 8.54699 11.9999 7.33337C11.9999 4.75471 9.91125 2.66671 7.33325 2.66671C4.75459 2.66671 2.66659 4.75471 2.66659 7.33337C2.66659 9.91137 4.75459 12 7.33325 12C8.54687 12.002 9.71318 11.5294 10.5833 10.6834L10.6833 10.5834Z" fill="#303030"/>
</svg>
